# Blender v2.93.2 OBJ File: ''
# www.blender.org
mtllib brick_redSkin.mtl
o Cube_Cube.001
v -2.000000 -0.500000 1.000000
v -2.000000 0.500000 1.000000
v -2.000000 -0.500000 -1.000000
v -2.000000 0.500000 -1.000000
v 2.000000 -0.500000 1.000000
v 2.000000 0.500000 1.000000
v 2.000000 -0.500000 -1.000000
v 2.000000 0.500000 -1.000000
vt 0.452821 0.608686
vt 0.429992 0.687155
vt 0.429992 0.608686
vt 0.452821 0.687155
vt 0.429992 0.765625
vt 0.452821 0.765625
vt 0.429992 0.844095
vt 0.452821 0.844095
vt 0.429992 0.922564
vt 0.407163 0.844095
vt 0.407163 0.765625
vt 0.475649 0.765625
vt 0.452821 0.922564
vt 0.475649 0.844095
vn -1.0000 0.0000 0.0000
vn 0.0000 0.0000 -1.0000
vn 1.0000 0.0000 0.0000
vn 0.0000 0.0000 1.0000
vn 0.0000 -1.0000 0.0000
vn 0.0000 1.0000 0.0000
usemtl Material.001
s off
f 2/1/1 3/2/1 1/3/1
f 4/4/2 7/5/2 3/2/2
f 8/6/3 5/7/3 7/5/3
f 6/8/4 1/9/4 5/7/4
f 7/5/5 1/10/5 3/11/5
f 4/12/6 6/8/6 8/6/6
f 2/1/1 4/4/1 3/2/1
f 4/4/2 8/6/2 7/5/2
f 8/6/3 6/8/3 5/7/3
f 6/8/4 2/13/4 1/9/4
f 7/5/5 5/7/5 1/10/5
f 4/12/6 2/14/6 6/8/6
