# Blender v2.93.2 OBJ File: ''
# www.blender.org
mtllib wall_lateral_blackSkin.mtl
o Cube.001
v -1.000000 1.000003 -17.500000
v 1.000000 0.999997 17.500000
v 1.000000 1.000003 -17.500000
v -1.000000 -1.000003 17.500000
v 1.000000 -1.000003 17.500000
v -1.000000 0.999997 17.500000
v -1.000000 -0.999997 -17.500000
v 1.000000 -0.999997 -17.500000
vt 0.955126 0.218750
vt 0.932959 0.283358
vt 0.932959 0.218750
vt 0.910792 0.347966
vt 0.910792 0.283358
vt 0.932959 0.089534
vt 0.910792 0.154142
vt 0.910792 0.089534
vt 0.910792 0.218750
vt 0.888624 0.283358
vt 0.888624 0.218750
vt 0.932959 0.154142
vt 0.955126 0.283358
vt 0.932959 0.347966
vn 0.0000 1.0000 0.0000
vn 0.0000 0.0000 1.0000
vn -1.0000 0.0000 0.0000
vn 0.0000 -1.0000 -0.0000
vn 1.0000 0.0000 0.0000
vn 0.0000 0.0000 -1.0000
usemtl Material.001
s 1
f 1/1/1 2/2/1 3/3/1
f 2/2/2 4/4/2 5/5/2
f 6/6/3 7/7/3 4/8/3
f 8/9/4 4/10/4 7/11/4
f 3/3/5 5/5/5 8/9/5
f 1/12/6 8/9/6 7/7/6
f 1/1/1 6/13/1 2/2/1
f 2/2/2 6/14/2 4/4/2
f 6/6/3 1/12/3 7/7/3
f 8/9/4 5/5/4 4/10/4
f 3/3/5 2/2/5 5/5/5
f 1/12/6 3/3/6 8/9/6
